<svg width="226" height="160" viewBox="0 0 226 160" fill="none" xmlns="http://www.w3.org/2000/svg">
<g clip-path="url(#clip0_6_544)">
<mask id="mask0_6_544" style="mask-type:alpha" maskUnits="userSpaceOnUse" x="0" y="17" width="226" height="125">
<rect y="17.0518" width="225.576" height="124.058" fill="url(#paint0_linear_6_544)"/>
</mask>
<g mask="url(#mask0_6_544)">
<path d="M197.304 33.345L184.554 27.9651L132.045 28.1726L122.955 24.0481L115.265 28.0837L82.4007 27.97L69.3788 20.4277H50.4445L47.5157 27.9675H31.0133L0 90.3523L34.5231 139.575H191.127L225.65 90.3523L197.302 33.3425L197.304 33.345ZM190.331 137.344H35.3193L2.20293 90.125L31.9934 30.1991H48.6211L51.5479 22.6592H68.9933L82.0114 30.1991L115.615 30.3152L123 26.4378L131.738 30.4042L184.268 30.1966L196.141 35.2059L223.447 90.12L190.331 137.339V137.344Z" fill="url(#paint1_linear_6_544)"/>
</g>
<path d="M223.449 90.1247L190.331 137.341H35.3193L2.20288 90.1247L31.9934 30.1988H48.621L51.5478 22.659H68.9933L82.0133 30.1988L115.615 30.3175L123 26.44L131.738 30.4064L184.268 30.1988L196.141 35.2106L223.449 90.1247Z" fill="url(#paint2_linear_6_544)"/>
<path d="M223.445 90.1247L196.143 35.2106L184.265 30.2013L131.739 30.4039L123.002 26.4375L115.612 30.315L82.0109 30.2013L68.9928 22.6614H51.5493L48.6225 30.2013H31.9968L2.20438 90.1247H22.1267L37.1422 104.223H61.4606L65.1015 90.1247H80.8762L84.5014 70.1766H88.0993L92.959 67.5027L91.9397 81.0403L105.376 90.1247H223.445Z" fill="#4A357D"/>
<path d="M12.7539 82.7579H29.7259L32.6429 75.6901H25.1166L30.442 63.8972L39.1676 59.8838L41.9242 53.2114L33.6192 56.8614L38.0387 47.0727L35.4347 42.103H40.2847H46.5101L48.3824 37.5682H35.2215L12.7539 82.7579Z" fill="white"/>
<path d="M55.1868 30.0257L45.3343 55.4205L57.2802 64.3764L61.9678 67.4358L54.8738 72.3017L49.8673 88.7826H41.8323L50.4249 63.6918L44.0059 58.8432L31.8701 90.1171L39.0678 96.8563H57.2293L66.2269 62.0015L53.9308 53.4533L60.5494 34.128H66.4656L70.4919 36.2657L64.7968 39.6241L60.9094 52.4278L67.5358 56.9255L73.5929 33.4608L67.7119 30.0257H55.1868Z" fill="white"/>
<path d="M77.3355 37.5678L67.0603 82.7575H76.2301L79.8573 62.8094H86.8848L95.6144 58.0077L97.2323 41.4156L90.4944 37.5678H77.3335H77.3355ZM89.119 47.2033L87.7104 57.0513H80.906L83.6234 42.1001H89.8488L94.4425 44.4602L89.119 47.2008V47.2033Z" fill="white"/>
<path d="M101.071 37.5678L98.1129 76.8585L106.839 82.7575H123.811L121.555 41.4156L114.234 37.5678H101.073H101.071ZM114.357 51.4712L114.576 75.6872H107.05L108.05 42.1001H114.275L119.058 44.4602L114.359 51.4712H114.357Z" fill="white"/>
<path d="M126.573 41.4329L130.124 82.7575H139.294L136.67 62.8094H143.698L147.094 82.7575H156.266L152.151 63.6916L146.753 60.8052L150.925 58.0077L146.513 37.5678H133.352L126.573 41.4329V41.4329ZM142.719 57.0513H135.915L134.628 47.2552L129.318 44.4627L133.949 42.1026H140.174L142.719 57.0538V57.0513Z" fill="white"/>
<path d="M149.915 42.1026H156.044L166.983 82.7575H176.155L164.909 47.013L158.486 42.0482H169.379L167.803 37.5678H148.868L149.915 42.1026Z" fill="white"/>
<path d="M200.054 56.9253L192.316 41.3637L183.317 37.5678H170.156L176.714 55.4203L195.423 64.3762L200.533 75.6896H193.005L188.053 63.6916L177.97 58.843L184.587 76.8585L195.924 82.7575H212.896L202.576 62.0013L183.826 53.4531L181.198 47.0871L174.294 42.1026H185.365L190.027 52.4276L200.054 56.9253Z" fill="white"/>
<path d="M123.309 32.1531C122.348 33.3369 121.261 34.4341 120.065 35.43C121.372 36.4358 122.614 37.5825 123.775 38.8503C124.759 37.5825 125.843 36.4358 127.009 35.43C125.674 34.4341 124.434 33.3369 123.309 32.1531Z" fill="#E2D45C"/>
<path d="M23.0959 77.1725L28.6032 64.9743C26.5607 65.2684 24.5358 65.5699 22.5285 65.8837L14.877 81.2748H29.0141L30.7064 77.1725H23.0959V77.1725Z" fill="url(#paint3_linear_6_544)"/>
<path d="M62.5825 61.1608C60.3952 61.3412 58.2216 61.534 56.0617 61.7391L57.8499 63.0785L63.725 66.9115L64.8089 62.7078L62.5825 61.1608V61.1608ZM55.8132 73.3417L50.6756 90.265H40.0464L48.9403 64.2969L46.8 62.6807C45.7591 62.7943 44.7203 62.9105 43.6873 63.0316L33.3554 89.6595L39.4555 95.3731H56.3767L63.4081 68.1348L55.8132 73.3417V73.3417Z" fill="url(#paint4_linear_6_544)"/>
<path d="M90.0218 59.4681L86.643 61.3265H78.9249L75.2977 81.2746H68.6204L73.3765 60.3553C78.8506 59.992 84.401 59.6954 90.0218 59.4681Z" fill="url(#paint5_linear_6_544)"/>
<path d="M122.553 81.2748H107.134L99.3552 76.0184L100.629 59.1174C102.536 59.0679 104.45 59.0284 106.371 58.9963L105.831 77.1725H115.764L115.599 58.8999C116.478 58.8974 117.358 58.895 118.241 58.895C119.274 58.895 120.305 58.8974 121.332 58.9024L122.553 81.2748V81.2748Z" fill="url(#paint6_linear_6_544)"/>
<path d="M154.73 81.2746H148.043L144.647 61.3265H135.285L137.909 81.2746H131.177L129.261 58.9813C134.99 59.0702 140.657 59.2309 146.257 59.4582L144.024 60.9558L151.169 64.7764L154.73 81.2746V81.2746Z" fill="url(#paint7_linear_6_544)"/>
<path d="M167.95 60.6938C166.037 60.5529 164.113 60.4195 162.181 60.2959L167.825 81.2745H174.426L167.95 60.6938Z" fill="url(#paint8_linear_6_544)"/>
<path d="M202.287 64.2058C200.325 63.9463 198.349 63.6943 196.357 63.4521L202.555 77.1726H192.294L187.219 64.878L180.757 61.7692C180.612 61.7543 180.469 61.742 180.324 61.7296L185.46 75.7096L196.156 81.2749H210.774L202.287 64.2058V64.2058Z" fill="url(#paint9_linear_6_544)"/>
<path fill-rule="evenodd" clip-rule="evenodd" d="M93.5136 116.011V112.962L86.8441 116.095H86.8304V119.224H86.8441L93.5136 122.358V119.303L90.0957 117.652L93.5136 116.011V116.011Z" fill="#996DFF"/>
<path fill-rule="evenodd" clip-rule="evenodd" d="M132.146 122.2V119.15L135.561 117.509L132.146 115.868V112.819L138.805 115.95H138.821V119.081H138.805L132.146 122.197V122.2ZM129.285 108.511L125.368 124.392H127.695L131.611 108.511H129.285Z" fill="#996DFF"/>
<path fill-rule="evenodd" clip-rule="evenodd" d="M103.314 112.386C103.975 113.305 104.323 114.516 104.282 115.757V122.521H101.956V116.377C101.983 115.693 101.809 115.02 101.471 114.487C101.148 114.012 100.671 113.75 100.176 113.777C98.72 113.777 97.9902 115.053 97.9902 117.605V122.523H95.6641V111.417H97.9902V112.421C98.7278 111.514 99.7295 111.032 100.759 111.086C101.717 111.034 102.649 111.509 103.312 112.386H103.314Z" fill="white"/>
<path fill-rule="evenodd" clip-rule="evenodd" d="M107.242 106.799V122.679H109.568V106.799H107.242Z" fill="white"/>
<path fill-rule="evenodd" clip-rule="evenodd" d="M122.711 122.098H120.77L118.869 115.557L116.95 122.098H115.013L111.753 110.972H114.238L116.069 117.625L117.957 110.972H119.771L121.659 117.647L123.49 110.972H125.975L122.711 122.098V122.098Z" fill="white"/>
<path d="M9.48309 25.9287C12.1164 17.8946 17.434 11.5632 25.2832 7.11245C32.8037 2.84704 42.3334 0.474619 53.6044 0.0643877C76.7098 -0.778316 104.603 6.68987 132.139 21.0998C134.119 22.1353 136.081 23.198 138.022 24.2878L135.277 24.2977C134.1 23.6527 132.912 23.0176 131.715 22.3923C75.2972 -7.12454 20.9223 -5.29827 10.5063 26.465C7.4895 35.663 8.48532 46.376 12.7934 57.6747C23.3561 85.3974 53.8509 116.637 93.9342 137.608C97.8118 139.637 101.693 141.525 105.569 143.272C129.083 153.879 152.308 159.254 172.013 158.535C183.139 158.129 192.524 155.799 199.912 151.61C207.497 147.31 212.621 141.228 215.143 133.535C217.418 126.593 217.41 118.789 215.416 110.52L216.267 109.307C218.603 118.421 218.572 126.742 216.168 134.072C213.532 142.106 208.217 148.437 200.366 152.888C192.845 157.153 183.317 159.526 172.046 159.936C170.869 159.978 169.679 160 168.478 160C148.614 160 125.542 154.151 102.329 143.272C99.3887 141.896 96.4482 140.438 93.5096 138.9C65.9729 124.493 42.0693 104.864 26.2027 83.628C19.9637 75.2775 15.2369 67.0383 12.1047 59.0586C11.3495 57.1384 10.6883 55.2355 10.1209 53.3499C7.06299 43.1905 6.84779 33.9653 9.48309 25.9287V25.9287Z" fill="url(#paint10_linear_6_544)"/>
<path d="M9.48309 25.9287C12.1164 17.8946 17.434 11.5632 25.2832 7.11245C32.8037 2.84704 42.3334 0.474619 53.6044 0.0643877C76.7098 -0.778316 104.603 6.68987 132.139 21.0998C134.119 22.1353 136.081 23.198 138.022 24.2878L135.277 24.2977C134.1 23.6527 132.912 23.0176 131.715 22.3923C75.2972 -7.12454 20.9223 -5.29827 10.5063 26.465C7.4895 35.663 8.48532 46.376 12.7934 57.6747C23.3561 85.3974 53.8509 116.637 93.9342 137.608C97.8118 139.637 101.693 141.525 105.569 143.272C129.083 153.879 152.308 159.254 172.013 158.535C183.139 158.129 192.524 155.799 199.912 151.61C207.497 147.31 212.621 141.228 215.143 133.535C217.418 126.593 217.41 118.789 215.416 110.52L216.267 109.307C218.603 118.421 218.572 126.742 216.168 134.072C213.532 142.106 208.217 148.437 200.366 152.888C192.845 157.153 183.317 159.526 172.046 159.936C170.869 159.978 169.679 160 168.478 160C148.614 160 125.542 154.151 102.329 143.272C99.3887 141.896 96.4482 140.438 93.5096 138.9C65.9729 124.493 42.0693 104.864 26.2027 83.628C19.9637 75.2775 15.2369 67.0383 12.1047 59.0586C11.3495 57.1384 10.6883 55.2355 10.1209 53.3499C7.06299 43.1905 6.84779 33.9653 9.48309 25.9287V25.9287Z" fill="url(#paint11_radial_6_544)"/>
<path d="M9.48309 25.9287C12.1164 17.8946 17.434 11.5632 25.2832 7.11245C32.8037 2.84704 42.3334 0.474619 53.6044 0.0643877C76.7098 -0.778316 104.603 6.68987 132.139 21.0998C134.119 22.1353 136.081 23.198 138.022 24.2878L135.277 24.2977C134.1 23.6527 132.912 23.0176 131.715 22.3923C75.2972 -7.12454 20.9223 -5.29827 10.5063 26.465C7.4895 35.663 8.48532 46.376 12.7934 57.6747C23.3561 85.3974 53.8509 116.637 93.9342 137.608C97.8118 139.637 101.693 141.525 105.569 143.272C129.083 153.879 152.308 159.254 172.013 158.535C183.139 158.129 192.524 155.799 199.912 151.61C207.497 147.31 212.621 141.228 215.143 133.535C217.418 126.593 217.41 118.789 215.416 110.52L216.267 109.307C218.603 118.421 218.572 126.742 216.168 134.072C213.532 142.106 208.217 148.437 200.366 152.888C192.845 157.153 183.317 159.526 172.046 159.936C170.869 159.978 169.679 160 168.478 160C148.614 160 125.542 154.151 102.329 143.272C99.3887 141.896 96.4482 140.438 93.5096 138.9C65.9729 124.493 42.0693 104.864 26.2027 83.628C19.9637 75.2775 15.2369 67.0383 12.1047 59.0586C11.3495 57.1384 10.6883 55.2355 10.1209 53.3499C7.06299 43.1905 6.84779 33.9653 9.48309 25.9287V25.9287Z" fill="url(#paint12_radial_6_544)"/>
<path d="M9.48309 25.9287C12.1164 17.8946 17.434 11.5632 25.2832 7.11245C32.8037 2.84704 42.3334 0.474619 53.6044 0.0643877C76.7098 -0.778316 104.603 6.68987 132.139 21.0998C134.119 22.1353 136.081 23.198 138.022 24.2878L135.277 24.2977C134.1 23.6527 132.912 23.0176 131.715 22.3923C75.2972 -7.12454 20.9223 -5.29827 10.5063 26.465C7.4895 35.663 8.48532 46.376 12.7934 57.6747C23.3561 85.3974 53.8509 116.637 93.9342 137.608C97.8118 139.637 101.693 141.525 105.569 143.272C129.083 153.879 152.308 159.254 172.013 158.535C183.139 158.129 192.524 155.799 199.912 151.61C207.497 147.31 212.621 141.228 215.143 133.535C217.418 126.593 217.41 118.789 215.416 110.52L216.267 109.307C218.603 118.421 218.572 126.742 216.168 134.072C213.532 142.106 208.217 148.437 200.366 152.888C192.845 157.153 183.317 159.526 172.046 159.936C170.869 159.978 169.679 160 168.478 160C148.614 160 125.542 154.151 102.329 143.272C99.3887 141.896 96.4482 140.438 93.5096 138.9C65.9729 124.493 42.0693 104.864 26.2027 83.628C19.9637 75.2775 15.2369 67.0383 12.1047 59.0586C11.3495 57.1384 10.6883 55.2355 10.1209 53.3499C7.06299 43.1905 6.84779 33.9653 9.48309 25.9287V25.9287Z" fill="url(#paint13_radial_6_544)"/>
<path d="M216.168 25.9287C213.534 17.8946 208.217 11.5632 200.367 7.11245C192.847 2.84704 183.317 0.474619 172.046 0.0643877C148.941 -0.778316 121.048 6.68987 93.5114 21.0998C91.5315 22.1353 89.5692 23.198 87.6284 24.2878L90.3733 24.2977C91.5511 23.6527 92.7386 23.0176 93.936 22.3923C150.353 -7.12454 204.728 -5.29827 215.144 26.465C218.161 35.663 217.165 46.376 212.857 57.6747C202.295 85.3974 171.8 116.637 131.716 137.608C127.839 139.637 123.957 141.525 120.082 143.272C96.5674 153.879 73.3426 159.254 53.6375 158.535C42.5113 158.129 33.1263 155.799 25.7389 151.61C18.1538 147.31 13.0299 141.228 10.5081 133.535C8.23279 126.593 8.24062 118.789 10.2342 110.52L9.38317 109.307C7.0472 118.421 7.0785 126.742 9.48295 134.072C12.1183 142.106 17.4339 148.437 25.285 152.888C32.8055 157.153 42.3333 159.526 53.6042 159.936C54.782 159.978 55.9715 160 57.1728 160C77.0364 160 100.108 154.151 123.321 143.272C126.262 141.896 129.202 140.438 132.141 138.9C159.678 124.493 183.581 104.864 199.448 83.628C205.687 75.2775 210.414 67.0383 213.546 59.0586C214.301 57.1384 214.962 55.2355 215.53 53.3499C218.588 43.1905 218.803 33.9653 216.168 25.9287V25.9287Z" fill="url(#paint14_linear_6_544)"/>
<path d="M216.168 25.9287C213.534 17.8946 208.217 11.5632 200.367 7.11245C192.847 2.84704 183.317 0.474619 172.046 0.0643877C148.941 -0.778316 121.048 6.68987 93.5114 21.0998C91.5315 22.1353 89.5692 23.198 87.6284 24.2878L90.3733 24.2977C91.5511 23.6527 92.7386 23.0176 93.936 22.3923C150.353 -7.12454 204.728 -5.29827 215.144 26.465C218.161 35.663 217.165 46.376 212.857 57.6747C202.295 85.3974 171.8 116.637 131.716 137.608C127.839 139.637 123.957 141.525 120.082 143.272C96.5674 153.879 73.3426 159.254 53.6375 158.535C42.5113 158.129 33.1263 155.799 25.7389 151.61C18.1538 147.31 13.0299 141.228 10.5081 133.535C8.23279 126.593 8.24062 118.789 10.2342 110.52L9.38317 109.307C7.0472 118.421 7.0785 126.742 9.48295 134.072C12.1183 142.106 17.4339 148.437 25.285 152.888C32.8055 157.153 42.3333 159.526 53.6042 159.936C54.782 159.978 55.9715 160 57.1728 160C77.0364 160 100.108 154.151 123.321 143.272C126.262 141.896 129.202 140.438 132.141 138.9C159.678 124.493 183.581 104.864 199.448 83.628C205.687 75.2775 210.414 67.0383 213.546 59.0586C214.301 57.1384 214.962 55.2355 215.53 53.3499C218.588 43.1905 218.803 33.9653 216.168 25.9287V25.9287Z" fill="url(#paint15_radial_6_544)"/>
<path d="M216.168 25.9287C213.534 17.8946 208.217 11.5632 200.367 7.11245C192.847 2.84704 183.317 0.474619 172.046 0.0643877C148.941 -0.778316 121.048 6.68987 93.5114 21.0998C91.5315 22.1353 89.5692 23.198 87.6284 24.2878L90.3733 24.2977C91.5511 23.6527 92.7386 23.0176 93.936 22.3923C150.353 -7.12454 204.728 -5.29827 215.144 26.465C218.161 35.663 217.165 46.376 212.857 57.6747C202.295 85.3974 171.8 116.637 131.716 137.608C127.839 139.637 123.957 141.525 120.082 143.272C96.5674 153.879 73.3426 159.254 53.6375 158.535C42.5113 158.129 33.1263 155.799 25.7389 151.61C18.1538 147.31 13.0299 141.228 10.5081 133.535C8.23279 126.593 8.24062 118.789 10.2342 110.52L9.38317 109.307C7.0472 118.421 7.0785 126.742 9.48295 134.072C12.1183 142.106 17.4339 148.437 25.285 152.888C32.8055 157.153 42.3333 159.526 53.6042 159.936C54.782 159.978 55.9715 160 57.1728 160C77.0364 160 100.108 154.151 123.321 143.272C126.262 141.896 129.202 140.438 132.141 138.9C159.678 124.493 183.581 104.864 199.448 83.628C205.687 75.2775 210.414 67.0383 213.546 59.0586C214.301 57.1384 214.962 55.2355 215.53 53.3499C218.588 43.1905 218.803 33.9653 216.168 25.9287V25.9287Z" fill="url(#paint16_radial_6_544)"/>
</g>
<defs>
<linearGradient id="paint0_linear_6_544" x1="112.788" y1="74.7559" x2="112.788" y2="135.549" gradientUnits="userSpaceOnUse">
<stop stop-color="#D9D9D9"/>
<stop offset="1" stop-color="#D9D9D9" stop-opacity="0"/>
</linearGradient>
<linearGradient id="paint1_linear_6_544" x1="0" y1="80.0002" x2="225.652" y2="80.0002" gradientUnits="userSpaceOnUse">
<stop stop-color="#996DFF"/>
<stop offset="0.5" stop-color="#35E8B3"/>
<stop offset="1" stop-color="#E2D45C"/>
</linearGradient>
<linearGradient id="paint2_linear_6_544" x1="112.825" y1="91.9114" x2="112.825" y2="136.167" gradientUnits="userSpaceOnUse">
<stop stop-color="#28203E"/>
<stop offset="1" stop-color="#121214" stop-opacity="0"/>
</linearGradient>
<linearGradient id="paint3_linear_6_544" x1="22.7927" y1="61.0153" x2="22.7927" y2="78.4551" gradientUnits="userSpaceOnUse">
<stop stop-color="#A9A9AD"/>
<stop offset="1" stop-color="#A9A9AD" stop-opacity="0"/>
</linearGradient>
<linearGradient id="paint4_linear_6_544" x1="49.0831" y1="61.015" x2="49.0831" y2="78.4548" gradientUnits="userSpaceOnUse">
<stop stop-color="#A9A9AD"/>
<stop offset="1" stop-color="#A9A9AD" stop-opacity="0"/>
</linearGradient>
<linearGradient id="paint5_linear_6_544" x1="79.3221" y1="61.0151" x2="79.3221" y2="78.4549" gradientUnits="userSpaceOnUse">
<stop stop-color="#A9A9AD"/>
<stop offset="1" stop-color="#A9A9AD" stop-opacity="0"/>
</linearGradient>
<linearGradient id="paint6_linear_6_544" x1="110.955" y1="61.0153" x2="110.955" y2="78.4551" gradientUnits="userSpaceOnUse">
<stop stop-color="#A9A9AD"/>
<stop offset="1" stop-color="#A9A9AD" stop-opacity="0"/>
</linearGradient>
<linearGradient id="paint7_linear_6_544" x1="141.996" y1="61.0151" x2="141.996" y2="78.4549" gradientUnits="userSpaceOnUse">
<stop stop-color="#A9A9AD"/>
<stop offset="1" stop-color="#A9A9AD" stop-opacity="0"/>
</linearGradient>
<linearGradient id="paint8_linear_6_544" x1="168.304" y1="61.015" x2="168.304" y2="78.4548" gradientUnits="userSpaceOnUse">
<stop stop-color="#A9A9AD"/>
<stop offset="1" stop-color="#A9A9AD" stop-opacity="0"/>
</linearGradient>
<linearGradient id="paint9_linear_6_544" x1="195.549" y1="61.0154" x2="195.549" y2="78.4552" gradientUnits="userSpaceOnUse">
<stop stop-color="#A9A9AD"/>
<stop offset="1" stop-color="#A9A9AD" stop-opacity="0"/>
</linearGradient>
<linearGradient id="paint10_linear_6_544" x1="204.74" y1="114.544" x2="52.3331" y2="115.163" gradientUnits="userSpaceOnUse">
<stop stop-color="#996DFF"/>
<stop offset="0.5" stop-color="#35E8B3"/>
<stop offset="1" stop-color="#E2D45C"/>
</linearGradient>
<radialGradient id="paint11_radial_6_544" cx="0" cy="0" r="1" gradientUnits="userSpaceOnUse" gradientTransform="translate(111.434 146.212) rotate(19.6217) scale(104.677 210.326)">
<stop stop-color="#171226"/>
<stop offset="1" stop-color="#171226" stop-opacity="0"/>
</radialGradient>
<radialGradient id="paint12_radial_6_544" cx="0" cy="0" r="1" gradientUnits="userSpaceOnUse" gradientTransform="translate(137.703 25.0001) rotate(-151.843) scale(24.0809 46.313)">
<stop stop-color="#261945"/>
<stop offset="1" stop-color="#261945" stop-opacity="0"/>
</radialGradient>
<radialGradient id="paint13_radial_6_544" cx="0" cy="0" r="1" gradientUnits="userSpaceOnUse" gradientTransform="translate(216.509 107.273) rotate(79.4238) scale(32.6763 43.8191)">
<stop stop-color="#191326"/>
<stop offset="1" stop-color="#191326" stop-opacity="0"/>
</radialGradient>
<linearGradient id="paint14_linear_6_544" x1="118.63" y1="17.7274" x2="168.949" y2="118.72" gradientUnits="userSpaceOnUse">
<stop stop-color="#996DFF"/>
<stop offset="0.5" stop-color="#35E8B3"/>
<stop offset="1" stop-color="#E2D45C"/>
</linearGradient>
<radialGradient id="paint15_radial_6_544" cx="0" cy="0" r="1" gradientUnits="userSpaceOnUse" gradientTransform="translate(85.5242 27.4244) rotate(-23.9242) scale(53.8019 105.926)">
<stop stop-color="#171225"/>
<stop offset="1" stop-color="#171225" stop-opacity="0"/>
</radialGradient>
<radialGradient id="paint16_radial_6_544" cx="0" cy="0" r="1" gradientUnits="userSpaceOnUse" gradientTransform="translate(9.47609 108.788) rotate(71.8201) scale(43.0585 59.8877)">
<stop stop-color="#191327"/>
<stop offset="1" stop-color="#191327" stop-opacity="0"/>
</radialGradient>
<clipPath id="clip0_6_544">
<rect width="225.652" height="160" fill="white"/>
</clipPath>
</defs>
</svg>
